<svg width="100%" height="100%" viewBox="0 0 100 100" xmlns="http://www.w3.org/2000/svg" class="logo">
  <g fill="none" fill-rule="evenodd">
    <path class="logo-path" d="M 49.17 10.915 L 15.415 30.29 l.058 39.252 34.633 20.082 33.345-18.95-.023-39.79 z" stroke="white" stroke-width="4.987"/>
    <g transform="translate(41.5 3)"><ellipse cx="7.934" cy="7.97" rx="7.934" ry="7.97" fill="white"/></g>
    <g transform="translate(8 22.482)"><ellipse cx="7.934" cy="7.97" rx="7.934" ry="7.97" fill="white"/></g>
    <g transform="translate(8 62.33)"><ellipse cx="7.934" cy="7.97" rx="7.934" ry="7.97" fill="white"/></g>
    <g transform="translate(42.382 81.813)"><ellipse cx="7.934" cy="7.97" rx="7.934" ry="7.97" fill="white"/></g>
    <g transform="translate(75.882 62.33)"><ellipse cx="7.934" cy="7.97" rx="7.934" ry="7.97" fill="white"/></g>
    <g transform="translate(75.882 22.482)"><ellipse cx="7.934" cy="7.97" rx="7.934" ry="7.97" fill="white"/></g>
    <g transform="translate(34.5 29.5)">
      <path fill="white" stroke="white" stroke-width="1" class="logo-path"
        d="M15 3
           Q16.5 6.8 25 18
           A12.8 12.8 0 1 1 5 18
           Q13.5 6.8 15 3z" />
    </g>
  </g>
</svg>
